<?xml version="1.0" encoding="UTF-8"?>
<!DOCTYPE svg PUBLIC "-//W3C//DTD SVG 1.1//EN" "http://www.w3.org/Graphics/SVG/1.1/DTD/svg11.dtd">
<!-- Creator: CorelDRAW 2019 (64-Bit) -->
<svg xmlns="http://www.w3.org/2000/svg" xml:space="preserve" width="64px" height="64px" version="1.1" style="shape-rendering:geometricPrecision; text-rendering:geometricPrecision; image-rendering:optimizeQuality; fill-rule:evenodd; clip-rule:evenodd"
viewBox="0 0 64 64"
 xmlns:xlink="http://www.w3.org/1999/xlink"
 enable-background="new 0 0 512 512">
 <defs>
  <style type="text/css">
   <![CDATA[
    .fil0 {fill:#D7DBE4}
   ]]>
  </style>
 </defs>
 <g id="Слой_x0020_1">
  <metadata id="CorelCorpID_0Corel-Layer"/>
  <g id="funnel.svg">
   <g>
    <g>
     <g>
      <path class="fil0" d="M23.73 60.89l0 -22.42 -22.79 -33.88c-0.93,-1.07 -0.53,-4 2.17,-4.09l57.76 0c1.57,0 3.57,1.85 2.18,4.09l-22.8 33.88 0 13.91c0,0.83 -0.39,1.6 -1.04,2.1l-11.27 8.5c-0.64,0.72 -3.87,1.2 -4.21,-2.09l0 0zm-15.68 -55.15l20.49 30.47c0.3,0.44 0.45,0.94 0.45,1.46l0 17.96 6.02 -4.54 0 -13.42c0,-0.52 0.16,-1.02 0.45,-1.46l20.47 -30.47 -47.88 0z"/>
     </g>
    </g>
   </g>
  </g>
 </g>
</svg>
