<?xml version="1.0" encoding="UTF-8"?>
<!DOCTYPE svg PUBLIC "-//W3C//DTD SVG 1.1//EN" "http://www.w3.org/Graphics/SVG/1.1/DTD/svg11.dtd">
<!-- Creator: CorelDRAW 2019 (64-Bit) -->
<svg xmlns="http://www.w3.org/2000/svg" xml:space="preserve" width="64px" height="64px" version="1.1" style="shape-rendering:geometricPrecision; text-rendering:geometricPrecision; image-rendering:optimizeQuality; fill-rule:evenodd; clip-rule:evenodd"
viewBox="0 0 64 64"
 xmlns:xlink="http://www.w3.org/1999/xlink">
 <defs>
  <style type="text/css">
   <![CDATA[
    .fil0 {fill:#D7DBE4}
   ]]>
  </style>
 </defs>
 <g id="Слой_x0020_1">
  <metadata id="CorelCorpID_0Corel-Layer"/>
  <g id="message-closed-envelope.svg">
   <path class="fil0" d="M55.99 8.1l-47.98 0c-4.12,0 -7.47,3.22 -7.47,7.18l0 33.44c0,3.96 3.35,7.18 7.47,7.18l47.98 0c4.12,0 7.47,-3.22 7.47,-7.18l0 -33.44c0,-3.96 -3.35,-7.18 -7.47,-7.18zm0 41.46l-47.98 0c-0.61,0 -1.14,-0.39 -1.14,-0.84l0 -29.02 21.7 18.32c0.45,0.38 1.01,0.58 1.6,0.58l3.66 0c0.58,0 1.15,-0.2 1.6,-0.58l21.7 -18.32 0 29.02c0,0.45 -0.53,0.84 -1.14,0.84zm-23.99 -17.24l-21.11 -17.88 42.22 0 -21.11 17.88z"/>
   <g>
   </g>
   <g>
   </g>
   <g>
   </g>
   <g>
   </g>
   <g>
   </g>
   <g>
   </g>
   <g>
   </g>
   <g>
   </g>
   <g>
   </g>
   <g>
   </g>
   <g>
   </g>
   <g>
   </g>
   <g>
   </g>
   <g>
   </g>
   <g>
   </g>
  </g>
 </g>
</svg>
