<?xml version="1.0" encoding="UTF-8"?>
<!DOCTYPE svg PUBLIC "-//W3C//DTD SVG 1.1//EN" "http://www.w3.org/Graphics/SVG/1.1/DTD/svg11.dtd">
<!-- Creator: CorelDRAW 2019 (64-Bit) -->
<svg xmlns="http://www.w3.org/2000/svg" xml:space="preserve" width="64px" height="64px" version="1.1" style="shape-rendering:geometricPrecision; text-rendering:geometricPrecision; image-rendering:optimizeQuality; fill-rule:evenodd; clip-rule:evenodd"
viewBox="0 0 64 64"
 xmlns:xlink="http://www.w3.org/1999/xlink">
 <defs>
  <style type="text/css">
   <![CDATA[
    .fil0 {fill:#3D3E40}
   ]]>
  </style>
 </defs>
 <g id="Слой_x0020_1">
  <metadata id="CorelCorpID_0Corel-Layer"/>
  <g id="refresh.svg">
   <g>
    <g>
     <path class="fil0" d="M61.61 28.82c-0.2,-1.26 -1.39,-2.12 -2.65,-1.92 -1.27,0.2 -2.13,1.39 -1.93,2.65 0.01,0.02 0.01,0.03 0.01,0.04 2.36,13.89 -6.98,27.06 -20.87,29.41 -13.88,2.36 -27.05,-6.98 -29.41,-20.87 -2.36,-13.88 6.99,-27.05 20.87,-29.41 8.54,-1.45 17.23,1.54 23.08,7.92l-10.26 3.42c-1.22,0.41 -1.87,1.72 -1.47,2.93 0,0 0,0 0,0 0.41,1.22 1.72,1.87 2.93,1.47 0,0 0,0 0,0l13.9 -4.63c0.95,-0.32 1.58,-1.2 1.58,-2.2l0 -13.9c0,-1.28 -1.03,-2.31 -2.31,-2.31 -1.28,0 -2.32,1.03 -2.32,2.31l0 8.46c-11.93,-11.34 -30.79,-10.87 -42.14,1.06 -11.34,11.93 -10.87,30.79 1.06,42.14 11.93,11.34 30.79,10.87 42.14,-1.06 6.47,-6.8 9.35,-16.25 7.79,-25.51z"/>
    </g>
   </g>
   <g>
   </g>
   <g>
   </g>
   <g>
   </g>
   <g>
   </g>
   <g>
   </g>
   <g>
   </g>
   <g>
   </g>
   <g>
   </g>
   <g>
   </g>
   <g>
   </g>
   <g>
   </g>
   <g>
   </g>
   <g>
   </g>
   <g>
   </g>
   <g>
   </g>
  </g>
 </g>
</svg>
