<?xml version="1.0" encoding="UTF-8"?>
<!DOCTYPE svg PUBLIC "-//W3C//DTD SVG 1.1//EN" "http://www.w3.org/Graphics/SVG/1.1/DTD/svg11.dtd">
<!-- Creator: CorelDRAW 2019 (64-Bit) -->
<svg xmlns="http://www.w3.org/2000/svg" xml:space="preserve" width="64px" height="64px" version="1.1" style="shape-rendering:geometricPrecision; text-rendering:geometricPrecision; image-rendering:optimizeQuality; fill-rule:evenodd; clip-rule:evenodd"
viewBox="0 0 64 64"
 xmlns:xlink="http://www.w3.org/1999/xlink">
 <defs>
  <style type="text/css">
   <![CDATA[
    .fil0 {fill:#3D3E40}
   ]]>
  </style>
 </defs>
 <g id="Слой_x0020_1">
  <metadata id="CorelCorpID_0Corel-Layer"/>
  <g id="private-eye-magnifying-glass.svg">
   <path class="fil0" d="M60.84 52.75l-15.47 -15.47c-1.15,-1.15 -2.64,-1.73 -4.14,-1.76 5.8,-8.65 4.89,-20.5 -2.75,-28.14 -8.68,-8.68 -22.8,-8.68 -31.48,0 -8.68,8.68 -8.68,22.81 0,31.49 7.63,7.63 19.49,8.55 28.14,2.74 0.02,1.5 0.61,3 1.75,4.14l15.48 15.48c2.34,2.34 6.13,2.34 8.47,0 2.35,-2.34 2.35,-6.14 0,-8.48zm-27.2 -18.73c-6.01,6.01 -15.79,6.01 -21.8,0 -6.01,-6.01 -6.01,-15.79 0,-21.79 6.01,-6.01 15.79,-6.01 21.8,0 6.01,6 6.01,15.78 0,21.79z"/>
   <g>
   </g>
   <g>
   </g>
   <g>
   </g>
   <g>
   </g>
   <g>
   </g>
   <g>
   </g>
   <g>
   </g>
   <g>
   </g>
   <g>
   </g>
   <g>
   </g>
   <g>
   </g>
   <g>
   </g>
   <g>
   </g>
   <g>
   </g>
   <g>
   </g>
  </g>
 </g>
</svg>
