<?xml version="1.0" encoding="UTF-8"?>
<!DOCTYPE svg PUBLIC "-//W3C//DTD SVG 1.1//EN" "http://www.w3.org/Graphics/SVG/1.1/DTD/svg11.dtd">
<!-- Creator: CorelDRAW 2019 (64-Bit) -->
<svg xmlns="http://www.w3.org/2000/svg" xml:space="preserve" width="256px" height="256px" version="1.1" style="shape-rendering:geometricPrecision; text-rendering:geometricPrecision; image-rendering:optimizeQuality; fill-rule:evenodd; clip-rule:evenodd"
viewBox="0 0 256 256"
 xmlns:xlink="http://www.w3.org/1999/xlink">
 <defs>
  <style type="text/css">
   <![CDATA[
    .fil0 {fill:#3B7DAF}
   ]]>
  </style>
 </defs>
 <g id="Слой_x0020_1">
  <metadata id="CorelCorpID_0Corel-Layer"/>
  <g id="_1789762659808">
   <path class="fil0" d="M255 128c0,-70.14 -56.86,-127 -127,-127 -70.14,0 -127,56.86 -127,127 0,70.14 56.86,127 127,127 70.14,0 127,-56.86 127,-127zm-208.28 -55.1l107.32 0c1.71,0 3.09,1.39 3.09,3.1l0 17.35 26.2 0c1.01,0 1.96,0.49 2.54,1.33l16.91 24.21 6.62 9.28 2.41 3.43c0.37,0.52 0.56,1.14 0.56,1.77l0 30.12c0.03,0.83 -0.28,1.64 -0.86,2.24 -0.58,0.6 -1.37,0.94 -2.2,0.95l-9.28 0c-1.08,9.36 -9.01,16.42 -18.43,16.42 -9.42,0 -17.35,-7.06 -18.44,-16.42l-60 0c-1.09,9.36 -9.01,16.42 -18.43,16.42 -9.42,0 -17.35,-7.06 -18.43,-16.42l-19.58 0c-1.71,0 -3.09,-1.39 -3.09,-3.09l0 -87.59c0,-1.71 1.38,-3.1 3.09,-3.1z"/>
   <path class="fil0" d="M150.95 79.09l-101.08 0 0 55.42 83.97 0c1.71,0 3.1,1.39 3.1,3.1 0,1.7 -1.39,3.09 -3.1,3.09l-83.97 0 0 19.79 16.49 0c1.08,-9.36 9.01,-16.42 18.43,-16.42 9.42,0 17.35,7.06 18.44,16.42l47.72 0 0 -67.33 -22.33 0c-1.71,0 -3.1,-1.38 -3.1,-3.09 0,-1.71 1.39,-3.1 3.1,-3.1l22.33 0 0 -7.88z"/>
   <path class="fil0" d="M84.79 151.21c-6.83,0 -12.37,5.54 -12.37,12.38 0,6.85 5.51,12.44 12.37,12.52l0 -0.15c6.83,0 12.37,-5.54 12.37,-12.37 0,-6.84 -5.54,-12.38 -12.37,-12.38z"/>
   <path class="fil0" d="M156.98 99.53l0 60.96 6.18 0c1.09,-9.36 9.02,-16.42 18.44,-16.42 9.42,0 17.35,7.06 18.43,16.42l6.19 0 0 -26.13 -0.93 -1.33 -37.73 0c-1.71,0 -3.1,-1.39 -3.1,-3.09l0 -22.89c0,-1.71 1.39,-3.09 3.1,-3.09l17.32 0 -3.16 -4.43 -24.74 0z"/>
   <polygon class="fil0" points="170.65,110.2 170.65,126.9 200.99,126.9 189.2,110.2 "/>
   <path class="fil0" d="M181.66 151.21c-6.83,0 -12.37,5.54 -12.37,12.38 0,6.85 5.51,12.44 12.37,12.52l0 -0.15c6.83,0 12.37,-5.54 12.37,-12.37 0,-6.84 -5.54,-12.38 -12.37,-12.38z"/>
  </g>
 </g>
</svg>
